<?xml version="1.0" standalone="no"?>
<!DOCTYPE svg PUBLIC "-//W3C//DTD SVG 20010904//EN"
 "http://www.w3.org/TR/2001/REC-SVG-20010904/DTD/svg10.dtd">
<svg version="1.0" xmlns="http://www.w3.org/2000/svg"
 width="196.000000pt" height="196.000000pt" viewBox="0 0 196.000000 196.000000"
 preserveAspectRatio="xMidYMid meet">
<metadata>
Created by potrace 1.11, written by Peter Selinger 2001-2013
</metadata>
<g transform="translate(0.000000,196.000000) scale(0.100000,-0.100000)"
fill="#000000" stroke="none">
<path d="M920 1778 c-329 -41 -523 -391 -385 -693 42 -93 149 -205 195 -205
30 0 63 34 63 64 -1 20 -15 43 -56 84 -166 169 -151 414 33 553 52 39 131 69
181 69 21 0 28 6 34 28 3 15 17 43 30 63 l24 37 -32 4 c-18 2 -57 0 -87 -4z"/>
<path d="M1103 1741 c-39 -28 -63 -78 -63 -130 0 -37 37 -98 73 -120 75 -46
178 -17 217 60 25 47 25 82 1 135 -39 85 -149 112 -228 55z"/>
<path d="M1393 1527 c-6 -14 -26 -41 -43 -60 -31 -36 -31 -36 -17 -84 56 -191
-85 -417 -280 -446 -31 -5 -33 -3 -47 41 -44 141 -42 227 10 330 32 63 35 76
26 98 -13 27 -46 44 -74 36 -28 -7 -76 -71 -100 -132 -25 -66 -29 -213 -8
-299 17 -70 57 -171 77 -193 36 -40 206 -8 310 58 214 137 292 424 175 642
l-18 33 -11 -24z"/>
<path d="M558 615 l-3 -50 -23 48 c-22 47 -22 47 -72 47 l-50 0 0 -100 0 -100
35 0 c34 0 35 1 35 43 l0 42 26 -42 c24 -41 27 -43 75 -43 l49 0 0 99 0 99
-35 4 -34 4 -3 -51z"/>
<path d="M1053 663 c-12 -2 -36 -17 -53 -33 -40 -37 -43 -103 -5 -144 13 -14
30 -26 37 -27 7 0 21 -2 31 -4 27 -5 82 13 101 34 41 45 34 135 -12 160 -24
13 -70 19 -99 14z m55 -76 c21 -25 2 -67 -29 -67 -24 0 -40 38 -27 63 10 20
41 23 56 4z"/>
<path d="M270 560 l0 -100 35 0 35 0 0 100 0 100 -35 0 -35 0 0 -100z"/>
<path d="M695 563 l0 -98 35 0 c33 0 35 2 35 32 0 47 10 48 30 3 18 -41 19
-41 69 -38 l51 3 0 95 0 95 -35 0 c-35 0 -35 0 -34 -42 1 -50 -6 -48 -31 7
-18 39 -19 40 -69 40 l-51 0 0 -97z"/>
<path d="M1230 633 c9 -29 43 -126 55 -155 5 -13 19 -18 51 -18 24 0 44 1 44
3 0 2 15 47 34 100 l33 97 -38 0 c-38 0 -39 0 -56 -57 l-17 -58 -16 55 c-17
54 -18 55 -58 58 -41 3 -41 3 -32 -25z"/>
<path d="M1495 573 c-17 -49 -31 -94 -33 -100 -2 -9 9 -13 32 -13 20 0 36 4
36 9 0 15 50 19 65 5 17 -18 88 -19 83 -1 -2 6 -16 51 -33 100 l-29 87 -46 0
-46 0 -29 -87z m80 -33 c-11 -17 -23 -1 -18 21 5 19 7 19 15 5 5 -9 6 -21 3
-26z"/>
<path d="M1633 390 c-45 -7 -73 -34 -73 -68 0 -29 26 -62 48 -62 7 0 12 -5 12
-11 0 -7 -10 -9 -25 -7 -23 5 -25 2 -25 -30 l0 -35 47 6 c55 6 83 33 83 79 0
22 -7 33 -30 46 -35 20 -39 35 -8 30 17 -2 22 2 23 24 2 31 -7 36 -52 28z"/>
<path d="M269 383 c-4 -25 -4 -193 1 -194 3 0 29 -1 59 -2 45 -2 55 1 61 18
11 29 1 45 -26 45 -26 0 -27 1 -25 83 l1 57 -35 0 c-19 0 -36 -3 -36 -7z"/>
<path d="M442 298 c-18 -51 -32 -98 -32 -104 0 -13 63 -9 68 5 5 16 69 14 75
-3 4 -10 16 -13 39 -9 18 3 34 6 36 8 1 1 -12 44 -31 96 l-33 94 -45 3 -44 3
-33 -93z m87 -30 c1 -5 -6 -8 -15 -8 -11 0 -14 5 -10 16 3 9 6 21 7 27 0 12
17 -20 18 -35z"/>
<path d="M656 296 c1 -52 5 -99 8 -105 4 -6 17 -9 29 -7 12 3 25 5 30 5 4 1 6
17 4 36 -6 50 7 52 28 5 11 -25 25 -40 37 -41 23 -1 66 -1 77 0 4 1 8 46 8
101 l-1 100 -33 0 c-30 0 -33 -3 -34 -32 -1 -18 -1 -39 0 -45 3 -25 -8 -13
-30 32 -22 44 -23 45 -73 45 l-51 0 1 -94z"/>
<path d="M941 359 c-41 -40 -43 -103 -7 -146 21 -24 32 -28 78 -28 80 0 88 6
88 65 l0 50 -35 0 c-31 0 -35 -3 -35 -25 0 -27 -20 -34 -38 -12 -13 15 -13 27
0 50 7 14 19 18 51 15 37 -2 41 0 48 24 4 15 4 29 1 32 -3 3 -31 6 -63 6 -51
0 -61 -4 -88 -31z"/>
<path d="M1140 312 c0 -65 3 -82 20 -100 12 -12 24 -22 28 -23 4 0 20 -3 35
-5 40 -7 95 13 108 39 12 21 20 131 11 155 -2 6 -20 12 -39 12 -27 0 -34 -4
-32 -17 6 -63 -2 -121 -18 -127 -27 -11 -38 11 -38 77 l0 62 -37 3 -38 3 0
-79z"/>
<path d="M1390 291 c0 -70 4 -100 13 -103 10 -4 90 -3 120 1 4 1 7 12 7 26 0
25 -10 30 -52 26 -10 -1 -18 2 -18 8 0 5 15 11 33 13 31 3 34 9 28 46 0 4 -13
9 -28 10 -41 3 -41 12 0 12 34 0 37 2 37 30 l0 30 -70 0 -70 0 0 -99z"/>
</g>
</svg>
